<svg width="22" height="16" viewBox="0 0 22 16" fill="none" xmlns="http://www.w3.org/2000/svg">
<path d="M0.333374 5.99467V12C0.333374 13.0609 0.754802 14.0783 1.50495 14.8284C2.25509 15.5786 3.27251 16 4.33337 16H17.6667C18.7276 16 19.745 15.5786 20.4951 14.8284C21.2453 14.0783 21.6667 13.0609 21.6667 12V5.99467L11.5467 10.5493C11.3748 10.6266 11.1885 10.6666 11 10.6666C10.8116 10.6666 10.6253 10.6266 10.4534 10.5493L0.333374 5.99467ZM0.432041 3.11467L11 7.872L21.568 3.11467C21.3673 2.23007 20.8718 1.43997 20.1629 0.874025C19.454 0.308075 18.5738 -0.000122529 17.6667 3.65425e-08H4.33337C3.42628 -0.000122529 2.54607 0.308075 1.83718 0.874025C1.12829 1.43997 0.632812 2.23007 0.432041 3.11467Z" fill="white"/>
</svg>
