<svg width="22" height="13" viewBox="0 0 22 13" fill="none" xmlns="http://www.w3.org/2000/svg">
<path d="M21.5768 2.56487L12.0148 12.5591C11.8815 12.6988 11.7232 12.8097 11.5488 12.8854C11.3745 12.961 11.1876 13 10.9988 13C10.81 13 10.6231 12.961 10.4488 12.8854C10.2744 12.8097 10.1161 12.6988 9.98284 12.5591L0.420826 2.56487C0.151376 2.28324 -4.01512e-09 1.90126 0 1.50298C4.01512e-09 1.1047 0.151376 0.722725 0.420826 0.441096C0.690277 0.159467 1.05573 0.00124955 1.43679 0.00124954C1.81785 0.00124954 2.1833 0.159467 2.45275 0.441096L11 9.37467L19.5472 0.439848C19.8167 0.158218 20.1821 0 20.5632 0C20.9443 0 21.3097 0.158218 21.5792 0.439848C21.8486 0.721477 22 1.10345 22 1.50173C22 1.90002 21.8486 2.28199 21.5792 2.56362L21.5768 2.56487Z" fill="white"/>
</svg>
