<svg width="22" height="18" viewBox="0 0 22 18" fill="none" xmlns="http://www.w3.org/2000/svg">
<path d="M1.51217 7.74897C7.41886 5.20899 11.3567 3.53442 13.3256 2.72525C18.9537 0.414959 20.1217 0.0137121 20.8846 0.000118444C21.0524 -0.00253779 21.4259 0.0383991 21.6696 0.232929C21.8722 0.39699 21.9292 0.618864 21.9577 0.774644C21.983 0.930268 22.0178 1.28495 21.9893 1.56183C21.6855 4.7243 20.3655 12.3986 19.6944 15.9408C19.4127 17.4395 18.8524 17.942 18.3111 17.9911C17.1336 18.098 16.2409 17.2236 15.1014 16.4864C13.3192 15.3323 12.3126 14.6142 10.5811 13.4883C8.58057 12.1871 9.8784 11.4718 11.018 10.303C11.3155 9.99708 16.5005 5.34242 16.5986 4.92024C16.6113 4.86743 16.6239 4.67055 16.5036 4.5668C16.3865 4.46274 16.2124 4.49837 16.0858 4.52649C15.9054 4.56649 13.0597 6.42523 7.53914 10.1024C6.73196 10.6505 6.00075 10.9177 5.34234 10.9036C4.62062 10.8883 3.22783 10.4999 2.19273 10.168C0.926561 9.76083 -0.0832115 9.54552 0.00542052 8.85396C0.0497365 8.49396 0.55304 8.12553 1.51217 7.74897Z" fill="white"/>
</svg>
